<?xml version="1.0" encoding="UTF-8"?>
<!-- Generated by jsxcad -->
<!DOCTYPE svg PUBLIC "-//W3C//DTD SVG 1.1 Tiny//EN" "http://www.w3.org/Graphics/SVG/1.1/DTD/svg11-tiny.dtd">
<svg baseProfile="tiny" height="36.34550094604495mm" width="50.568211765289334mm" viewBox="0 0 50.568211765289334 36.34550094604495" version="1.1" stroke="black" stroke-width=".1" fill="none" xmlns="http://www.w3.org/2000/svg">
<path fill="#b0e0e6" stroke="#b0e0e6" d="M22.84679 17.61645 L24.1994 15.92033 L26.36882 15.92033 L27.72143 17.61645 L27.23868 19.73147 L25.28411 20.67275 L23.32953 19.73147 z"/>
<path fill="#b0e0e6" stroke="#b0e0e6" d="M27.2386828263543 19.731475868985452 L27.2386828263543 19.731475868985452 L25.284109409798845 20.67274877443462 L25.284109409798845 20.67274877443462 z"/>
<path fill="#b0e0e6" stroke="#b0e0e6" d="M23.329527505970386 19.73147517890608 L23.329527505970386 19.73147517890608 L25.284109039974993 20.672751993512552 L25.284109039974993 20.672751993512552 z"/>
<path fill="#b0e0e6" stroke="#b0e0e6" d="M26.36882 15.920328378677382 L26.36882 15.920328378677382 L24.1994 15.920328378677382 L24.1994 15.920328378677382 z"/>
<path fill="#b0e0e6" stroke="#b0e0e6" d="M27.72142822879387 17.61645141248971 L27.72142822879387 17.61645141248971 L26.368817910409287 15.92033166639293 L26.368817910409287 15.92033166639293 z"/>
<path fill="#b0e0e6" stroke="#b0e0e6" d="M27.721425455867646 17.6164489628316 L27.721425455867646 17.6164489628316 L27.238685493939506 19.731471253955647 L27.238685493939506 19.731471253955647 z"/>
<path fill="#b0e0e6" stroke="#b0e0e6" d="M22.846786717167923 17.61645074928488 L22.846786717167923 17.61645074928488 L23.32952618394055 19.73147087099053 L23.32952618394055 19.73147087099053 z"/>
<path fill="#b0e0e6" stroke="#b0e0e6" d="M22.846786737652916 17.6164473983651 L22.846786737652916 17.6164473983651 L24.199397056037494 15.92032765226832 L24.199397056037494 15.92032765226832 z"/>
<path fill="#b0e0e6" stroke="#b0e0e6" d="M24.1994 15.92033 L22.84679 17.61645 L23.32953 19.73147 L25.28411 20.67275 L27.23868 19.73147 L27.72143 17.61645 L26.36882 15.92033 z"/>
<path fill="#c0c0c0" stroke="#c0c0c0" d="M2.15334 15.02478 L23.0824 9.24009 L25.28411 8.97275 L27.48581 9.24009 L48.41487 15.02478 L50.17029 16.49775 L50.56821 18.75447 L49.42244 20.739 L47.26911 21.52275 L27.48581 27.10542 L25.28411 27.37275 L23.0824 27.10542 L3.29911 21.52275 L1.14577 20.739 L0 18.75447 L0.39792 16.49775 M45.58752 18.63628 L47.01411 19.67275 L47.68071 19.18844 L48.44069 18.63628 L48.01116 17.31433 L47.89578 16.95922 L46.13243 16.95922 M4.51166 17.19273 L4.45863 17.02955 L4.43578 16.95922 L4.35536 16.95922 L2.67243 16.95922 L2.41218 17.76019 L2.38948 17.83005 L2.35386 17.93967 L2.14275 18.5894 L2.12752 18.63628 L2.15668 18.65746 L2.2902 18.75447 L2.42418 18.85181 L2.49099 18.90036 L3.55411 19.67275 L4.45861 19.01559 L4.56567 18.9378 L4.81801 18.75447 L4.98069 18.63628 L4.9468 18.53196 L4.89653 18.37726 z"/>
<path fill="#c0c0c0" stroke="#c0c0c0" d="M27.485810524939712 9.240085676727142 L27.485810524939712 9.240085676727142 L25.28410986075504 8.972751146786791 L25.28410986075504 8.972751146786791 z"/>
<path fill="#c0c0c0" stroke="#c0c0c0" d="M50.17029012304244 16.49774985336372 L50.17029012304244 16.49774985336372 L48.41487124246424 15.024778519288773 L48.41487124246424 15.024778519288773 z"/>
<path fill="#c0c0c0" stroke="#c0c0c0" d="M46.13243 16.959224939346328 L46.13243 16.959224939346328 L47.89578 16.959224939346328 L47.89578 16.959224939346328 z"/>
<path fill="#c0c0c0" stroke="#c0c0c0" d="M49.42244296201674 20.739001710121084 L49.42244296201674 20.739001710121084 L50.568212120049715 18.75447122401122 L50.568212120049715 18.75447122401122 z"/>
<path fill="#c0c0c0" stroke="#c0c0c0" d="M27.48580877629901 27.10541566356946 L27.48580877629901 27.10541566356946 L47.26910979502167 21.52274927361808 L47.26910979502167 21.52274927361808 z"/>
<path fill="#c0c0c0" stroke="#c0c0c0" d="M47.014108352553116 19.67275226751605 L47.014108352553116 19.67275226751605 L45.58752231457208 18.63627681426491 L45.58752231457208 18.63627681426491 z"/>
<path fill="#c0c0c0" stroke="#c0c0c0" d="M25.284109973956593 27.37274978551302 L25.284109973956593 27.37274978551302 L27.48580944156438 27.105415400863226 L27.48580944156438 27.105415400863226 z"/>
<path fill="#c0c0c0" stroke="#c0c0c0" d="M23.08239950070827 9.240085887957582 L23.08239950070827 9.240085887957582 L25.28411001960238 8.97275016144035 L25.28411001960238 8.97275016144035 z"/>
<path fill="#c0c0c0" stroke="#c0c0c0" d="M23.0824005840836 27.105415189632783 L23.0824005840836 27.105415189632783 L25.28410990640083 27.372750770859458 L25.28410990640083 27.372750770859458 z"/>
<path fill="#c0c0c0" stroke="#c0c0c0" d="M4.4357819390274935 16.95921936997184 L4.4357819390274935 16.95921936997184 L4.458633386023448 17.029548899814408 L4.5116546939542195 17.192731724038595 L4.8965311033602115 18.377259641496572 L4.9467966455437 18.531961089928803 L4.980691728010813 18.63627943853531 L4.980691728010813 18.63627943853531 L4.9467966455437 18.531961089928803 L4.8965311033602115 18.377259641496572 L4.5116546939542195 17.192731724038595 L4.458633386023448 17.029548899814408 z"/>
<path fill="#c0c0c0" stroke="#c0c0c0" d="M2.6724296576917848 16.959219888777326 L2.6724296576917848 16.959219888777326 L2.4121788428335726 17.760189624013876 L2.3894798490824085 17.830049950963904 L2.35386193556582 17.93967062890339 L2.1427518891167754 18.589400613811183 L2.127519868708422 18.636279957340783 L2.127519868708422 18.636279957340783 L2.1427518891167754 18.589400613811183 L2.35386193556582 17.93967062890339 L2.3894798490824085 17.830049950963904 L2.4121788428335726 17.760189624013876 z"/>
<path fill="#c0c0c0" stroke="#c0c0c0" d="M3.554108352553116 19.672752267516046 L3.554108352553116 19.672752267516046 L2.4909940172095357 18.900354470785565 L2.424179408176158 18.851810814575614 L2.2902004402717573 18.754469394017928 L2.1566794705971253 18.657460728660524 L2.1275223145720834 18.63627681426491 L2.1275223145720834 18.63627681426491 L2.1566794705971253 18.657460728660524 L2.2902004402717573 18.754469394017928 L2.424179408176158 18.851810814575614 L2.4909940172095357 18.900354470785565 z"/>
<path fill="#c0c0c0" stroke="#c0c0c0" d="M1.1457699052649444 20.739000260282452 L1.1457699052649444 20.739000260282452 L3.2991093969850285 21.52275165677019 L3.2991093969850285 21.52275165677019 z"/>
<path fill="#c0c0c0" stroke="#c0c0c0" d="M48.4406882953204 18.636277653709882 L48.4406882953204 18.636277653709882 L47.68070725139804 19.188436216874063 L47.014108802424225 19.672748351678393 L47.014108802424225 19.672748351678393 L47.68070725139804 19.188436216874063 z"/>
<path fill="#c0c0c0" stroke="#c0c0c0" d="M50.56821139766172 18.754469753554535 L50.56821139766172 18.754469753554535 L50.17029080161258 16.497749858654075 L50.17029080161258 16.497749858654075 z"/>
<path fill="#c0c0c0" stroke="#c0c0c0" d="M47.26910963973699 21.522749010185414 L47.26910963973699 21.522749010185414 L49.42244030123464 20.73900082763546 L49.42244030123464 20.73900082763546 z"/>
<path fill="#c0c0c0" stroke="#c0c0c0" d="M48.44069172801081 18.636279438535308 L48.44069172801081 18.636279438535308 L48.011163947781554 17.314328717288152 L47.89578193902745 16.959219369971855 L47.89578193902745 16.959219369971855 L48.011163947781554 17.314328717288152 z"/>
<path fill="#c0c0c0" stroke="#c0c0c0" d="M45.58751986870842 18.636279957340783 L45.58751986870842 18.636279957340783 L46.13242965769177 16.959219888777326 L46.13242965769177 16.959219888777326 z"/>
<path fill="#c0c0c0" stroke="#c0c0c0" d="M48.41487016633664 15.02477939819293 L48.41487016633664 15.02477939819293 L27.48581112282736 9.240085937603206 L27.48581112282736 9.240085937603206 z"/>
<path fill="#c0c0c0" stroke="#c0c0c0" d="M4.43578 16.959224939346328 L4.43578 16.959224939346328 L4.35536 16.959224939346328 L2.67243 16.959224939346328 L2.67243 16.959224939346328 L4.35536 16.959224939346328 z"/>
<path fill="#c0c0c0" stroke="#c0c0c0" d="M3.29910959760102 21.522751425981706 L3.29910959760102 21.522751425981706 L23.08240135390552 27.105415202163503 L23.08240135390552 27.105415202163503 z"/>
<path fill="#c0c0c0" stroke="#c0c0c0" d="M3.5541088024242335 19.672748351678408 L3.5541088024242335 19.672748351678408 L4.458609880174603 19.015589835074493 L4.565672902128442 18.937803994437015 L4.818010169620729 18.754470233462897 L4.980688295320402 18.63627765370988 L4.980688295320402 18.63627765370988 L4.818010169620729 18.754470233462897 L4.565672902128442 18.937803994437015 L4.458609880174603 19.015589835074493 z"/>
<path fill="#c0c0c0" stroke="#c0c0c0" d="M-7.960826893538096e-7 18.754470459618535 L-7.960826893538096e-7 18.754470459618535 L1.1457683619502894 20.739000945728396 L1.1457683619502894 20.739000945728396 z"/>
<path fill="#c0c0c0" stroke="#c0c0c0" d="M0.3979209104467646 16.497750160536324 L0.3979209104467646 16.497750160536324 L3.1439762635956583e-7 18.754470055436784 L3.1439762635956583e-7 18.754470055436784 z"/>
<path fill="#c0c0c0" stroke="#c0c0c0" d="M2.1533394869107854 15.024779388524085 L2.1533394869107854 15.024779388524085 L0.3979206063325814 16.49775072259903 L0.3979206063325814 16.49775072259903 z"/>
<path fill="#c0c0c0" stroke="#c0c0c0" d="M2.15333995895029 15.02477985148188 L2.15333995895029 15.02477985148188 L23.082399002459567 9.240086390892156 L23.082399002459567 9.240086390892156 z"/>
<path fill="#c0c0c0" stroke="#c0c0c0" d="M23.0824 9.24009 L2.15334 15.02478 L0.39792 16.49775 L0 18.75447 L1.14577 20.739 L3.29911 21.52275 L23.0824 27.10542 L25.28411 27.37275 L27.48581 27.10542 L47.26911 21.52275 L49.42244 20.739 L50.56821 18.75447 L50.17029 16.49775 L48.41487 15.02478 L27.48581 9.24009 L25.28411 8.97275 M47.89578 16.95922 L48.01116 17.31433 L48.44069 18.63628 L47.68071 19.18844 L47.01411 19.67275 L45.58752 18.63628 L46.13243 16.95922 M2.14275 18.5894 L2.35386 17.93967 L2.38948 17.83005 L2.41218 17.76019 L2.67243 16.95922 L4.35536 16.95922 L4.43578 16.95922 L4.45863 17.02955 L4.51166 17.19273 L4.89653 18.37726 L4.9468 18.53196 L4.98069 18.63628 L4.81801 18.75447 L4.56567 18.9378 L4.45861 19.01559 L3.55411 19.67275 L2.49099 18.90036 L2.42418 18.85181 L2.2902 18.75447 L2.15668 18.65746 L2.12752 18.63628 z"/>
<path fill="#c0c0c0" stroke="#c0c0c0" d="M23.04877 36.22488 L20.84732 35.81336 L18.71312 35.13442 L16.67853 34.19836 L14.7744 33.01937 L13.02958 31.61532 L11.47053 30.0075 L10.12088 28.22027 L9.00109 26.28073 L8.12813 24.21828 L7.51523 22.06419 L7.1717 19.85111 L7.10273 17.61259 L7.30938 15.38256 L7.7885 13.19482 L8.53283 11.08255 L9.5311 9.07775 L10.76817 7.21083 L12.22529 5.51007 L13.88036 4.00128 L15.7083 2.7073 L17.68141 1.64777 L19.76976 0.83874 L21.9417 0.29247 L24.16431 0.01725 L26.4039 0.01725 L28.62651 0.29247 L30.79845 0.83874 L32.8868 1.64777 L34.85991 2.7073 L36.68785 4.00128 L38.34292 5.51007 L39.80004 7.21083 L41.03711 9.07775 L42.03538 11.08255 L42.77972 13.19482 L43.25884 15.38256 L43.46548 17.61259 L43.39651 19.85111 L43.05298 22.06419 L42.44009 24.21828 L41.56713 26.28073 L40.44733 28.22027 L39.09768 30.0075 L37.53863 31.61532 L35.79381 33.01937 L33.88968 34.19836 L31.85509 35.13442 L29.7209 35.81336 L27.51944 36.22488 L25.28411 36.36275 z"/>
<path fill="#c0c0c0" stroke="#c0c0c0" d="M27.519440028036414 36.22488045456229 L27.519440028036414 36.22488045456229 L25.284110046275416 36.36275075027639 L25.284110046275416 36.36275075027639 z"/>
<path fill="#c0c0c0" stroke="#c0c0c0" d="M23.048769978653567 36.2248803460957 L23.048769978653567 36.2248803460957 L25.284109922517185 36.36275125625065 L25.284109922517185 36.36275125625065 z"/>
<path fill="#c0c0c0" stroke="#c0c0c0" d="M33.889680478367154 34.198361039763626 L33.889680478367154 34.198361039763626 L31.85509044284978 35.13442096256418 L31.85509044284978 35.13442096256418 z"/>
<path fill="#c0c0c0" stroke="#c0c0c0" d="M29.72089862433714 35.81335567568485 L29.72089862433714 35.81335567568485 L31.855090268172916 35.13442084298576 L31.855090268172916 35.13442084298576 z"/>
<path fill="#c0c0c0" stroke="#c0c0c0" d="M29.720899226405585 35.81335586164574 L29.720899226405585 35.81335586164574 L27.51944016963685 36.224880907474756 L27.51944016963685 36.224880907474756 z"/>
<path fill="#c0c0c0" stroke="#c0c0c0" d="M35.7938112843055 33.0193720742235 L35.7938112843055 33.0193720742235 L33.889680395077534 34.19836063807179 L33.889680395077534 34.19836063807179 z"/>
<path fill="#c0c0c0" stroke="#c0c0c0" d="M39.097679732955314 30.007499741056186 L39.097679732955314 30.007499741056186 L37.53863159117851 31.615321542909733 L37.53863159117851 31.615321542909733 z"/>
<path fill="#c0c0c0" stroke="#c0c0c0" d="M37.53863154250483 31.615321916878553 L37.53863154250483 31.615321916878553 L35.79381153072921 33.01937190224493 L35.79381153072921 33.01937190224493 z"/>
<path fill="#c0c0c0" stroke="#c0c0c0" d="M42.44008727538065 24.218278846767323 L42.44008727538065 24.218278846767323 L41.567126955938804 26.280728711559156 L41.567126955938804 26.280728711559156 z"/>
<path fill="#c0c0c0" stroke="#c0c0c0" d="M40.447331877926885 28.220271084221736 L40.447331877926885 28.220271084221736 L41.56712744675486 26.28072852588303 L41.56712744675486 26.28072852588303 z"/>
<path fill="#c0c0c0" stroke="#c0c0c0" d="M40.44733150433566 28.220271136020678 L40.44733150433566 28.220271136020678 L39.09767997226851 30.00749997905817 L39.09767997226851 30.00749997905817 z"/>
<path fill="#c0c0c0" stroke="#c0c0c0" d="M43.39651004441167 19.85111000689394 L43.39651004441167 19.85111000689394 L43.05297774856512 22.06418965051389 L43.05297774856512 22.06418965051389 z"/>
<path fill="#c0c0c0" stroke="#c0c0c0" d="M43.05297825558506 22.06418950367079 L43.05297825558506 22.06418950367079 L42.4400864977738 24.218279003529997 L42.4400864977738 24.218279003529997 z"/>
<path fill="#c0c0c0" stroke="#c0c0c0" d="M43.25883580871885 15.38256038838155 L43.25883580871885 15.38256038838155 L43.46547963523429 17.612590033800707 L43.46547963523429 17.612590033800707 z"/>
<path fill="#c0c0c0" stroke="#c0c0c0" d="M43.465479428418455 17.612589982389363 L43.465479428418455 17.612589982389363 L43.396509810650564 19.851109994166073 L43.396509810650564 19.851109994166073 z"/>
<path fill="#c0c0c0" stroke="#c0c0c0" d="M42.03537977520019 11.082550079216382 L42.03537977520019 11.082550079216382 L42.77971542391848 13.194821612548646 L42.77971542391848 13.194821612548646 z"/>
<path fill="#c0c0c0" stroke="#c0c0c0" d="M42.77971520323801 13.19482105050451 L42.77971520323801 13.19482105050451 L43.25883642431137 15.382560783085973 L43.25883642431137 15.382560783085973 z"/>
<path fill="#c0c0c0" stroke="#c0c0c0" d="M38.3429203511326 5.510069699168205 L38.3429203511326 5.510069699168205 L39.80004092146183 7.2108292105403615 L39.80004092146183 7.2108292105403615 z"/>
<path fill="#c0c0c0" stroke="#c0c0c0" d="M41.03710854968697 9.077750961012933 L41.03710854968697 9.077750961012933 L39.8000406886103 7.210829543709946 L39.8000406886103 7.210829543709946 z"/>
<path fill="#c0c0c0" stroke="#c0c0c0" d="M41.03710835475175 9.077750819236858 L41.03710835475175 9.077750819236858 L42.035380347962175 11.0825498267353 L42.035380347962175 11.0825498267353 z"/>
<path fill="#c0c0c0" stroke="#c0c0c0" d="M36.68785228868812 4.001277489427359 L36.68785228868812 4.001277489427359 L38.34291987713812 5.510070134773128 L38.34291987713812 5.510070134773128 z"/>
<path fill="#c0c0c0" stroke="#c0c0c0" d="M32.88680187372087 1.6477665106871022 L32.88680187372087 1.6477665106871022 L34.85990880385235 2.707302227510755 L34.85990880385235 2.707302227510755 z"/>
<path fill="#c0c0c0" stroke="#c0c0c0" d="M34.85990838701704 2.7073022785935623 L34.85990838701704 2.7073022785935623 L36.6878522037147 4.001276886904393 L36.6878522037147 4.001276886904393 z"/>
<path fill="#c0c0c0" stroke="#c0c0c0" d="M28.626510202926283 0.2924691931696937 L28.626510202926283 0.2924691931696937 L30.79845122147968 0.8387351434245012 L30.79845122147968 0.8387351434245012 z"/>
<path fill="#c0c0c0" stroke="#c0c0c0" d="M30.798451874863385 0.8387351604237324 L30.798451874863385 0.8387351604237324 L32.88680127819675 1.6477667005965921 L32.88680127819675 1.6477667005965921 z"/>
<path fill="#c0c0c0" stroke="#c0c0c0" d="M26.40389997474976 0.017250203915630674 L26.40389997474976 0.017250203915630674 L28.626510111896167 0.2924690963499832 L28.626510111896167 0.2924690963499832 z"/>
<path fill="#c0c0c0" stroke="#c0c0c0" d="M24.16431 0.01725006103517046 L24.16431 0.01725006103517046 L26.4039 0.01725006103517046 L26.4039 0.01725006103517046 z"/>
<path fill="#c0c0c0" stroke="#c0c0c0" d="M19.76975888354458 0.8387355609985832 L19.76975888354458 0.8387355609985832 L21.941699902097977 0.29246961074377564 L21.941699902097977 0.29246961074377564 z"/>
<path fill="#c0c0c0" stroke="#c0c0c0" d="M21.941699914762427 0.2924693116392137 L21.941699914762427 0.2924693116392137 L24.16431005190883 0.017250419204861187 L24.16431005190883 0.017250419204861187 z"/>
<path fill="#c0c0c0" stroke="#c0c0c0" d="M15.708301591250121 2.7073029632853296 L15.708301591250121 2.7073029632853296 L17.681408521381602 1.647767246461676 L17.681408521381602 1.647767246461676 z"/>
<path fill="#c0c0c0" stroke="#c0c0c0" d="M17.681408952165967 1.6477672952308235 L17.681408952165967 1.6477672952308235 L19.76975835549933 0.8387357550579638 L19.76975835549933 0.8387357550579638 z"/>
<path fill="#c0c0c0" stroke="#c0c0c0" d="M12.225290924065888 5.510071013652544 L12.225290924065888 5.510071013652544 L13.880358512515892 4.001278368306777 L13.880358512515892 4.001278368306777 z"/>
<path fill="#c0c0c0" stroke="#c0c0c0" d="M13.880358385578754 4.00127771937462 L13.880358385578754 4.00127771937462 L15.708302202276409 2.7073031110637884 L15.708302202276409 2.7073031110637884 z"/>
<path fill="#c0c0c0" stroke="#c0c0c0" d="M9.531103059804762 9.077751523602808 L9.531103059804762 9.077751523602808 L8.53283106659434 11.082550531101248 L8.53283106659434 11.082550531101248 z"/>
<path fill="#c0c0c0" stroke="#c0c0c0" d="M10.76817053807626 7.210830356542511 L10.76817053807626 7.210830356542511 L9.53110267699959 9.0777517738455 L9.53110267699959 9.0777517738455 z"/>
<path fill="#c0c0c0" stroke="#c0c0c0" d="M10.768170096573733 7.210830082739255 L10.768170096573733 7.210830082739255 L12.225290666902966 5.5100705713671 L12.225290666902966 5.5100705713671 z"/>
<path fill="#c0c0c0" stroke="#c0c0c0" d="M7.309375717857198 15.38255906219855 L7.309375717857198 15.38255906219855 L7.788496938930558 13.194819329617088 L7.788496938930558 13.194819329617088 z"/>
<path fill="#c0c0c0" stroke="#c0c0c0" d="M7.788497250974362 13.194819031280899 L7.788497250974362 13.194819031280899 L8.532831795095841 11.082550632567264 L8.532831795095841 11.082550632567264 z"/>
<path fill="#c0c0c0" stroke="#c0c0c0" d="M7.102732335196713 17.612589928051737 L7.102732335196713 17.612589928051737 L7.171701952964601 19.851109939828444 L7.171701952964601 19.851109939828444 z"/>
<path fill="#c0c0c0" stroke="#c0c0c0" d="M7.171701679342452 19.851109739318748 L7.171701679342452 19.851109739318748 L7.515233975189005 22.064189382938697 L7.515233975189005 22.064189382938697 z"/>
<path fill="#c0c0c0" stroke="#c0c0c0" d="M7.102732115026172 17.612590195987124 L7.102732115026172 17.612590195987124 L7.309376026677054 15.382559631815361 L7.309376026677054 15.382559631815361 z"/>
<path fill="#c0c0c0" stroke="#c0c0c0" d="M9.001086060475453 26.280731667458035 L9.001086060475453 26.280731667458035 L8.128125741033609 24.218281802666198 L8.128125741033609 24.218281802666198 z"/>
<path fill="#c0c0c0" stroke="#c0c0c0" d="M8.12812588422565 24.21828117103963 L8.12812588422565 24.21828117103963 L7.515233377499043 22.064189039017958 L7.515233377499043 22.064189039017958 z"/>
<path fill="#c0c0c0" stroke="#c0c0c0" d="M10.120879446040023 28.22027031982898 L10.120879446040023 28.22027031982898 L9.00108637721255 26.280732091617587 L9.00108637721255 26.280732091617587 z"/>
<path fill="#c0c0c0" stroke="#c0c0c0" d="M13.029579318647313 31.615320660683686 L13.029579318647313 31.615320660683686 L11.470531176870505 30.007498858830143 L11.470531176870505 30.007498858830143 z"/>
<path fill="#c0c0c0" stroke="#c0c0c0" d="M11.470531151923959 30.007499130108073 L11.470531151923959 30.007499130108073 L10.120879619856813 28.220270287070583 L10.120879619856813 28.220270287070583 z"/>
<path fill="#c0c0c0" stroke="#c0c0c0" d="M14.774399163087686 33.01937104003516 L14.774399163087686 33.01937104003516 L13.029579151312063 31.615321054668787 L13.029579151312063 31.615321054668787 z"/>
<path fill="#c0c0c0" stroke="#c0c0c0" d="M18.7131198655301 35.134420292279486 L18.7131198655301 35.134420292279486 L16.678529830012717 34.198360369478934 L16.678529830012717 34.198360369478934 z"/>
<path fill="#c0c0c0" stroke="#c0c0c0" d="M16.67853009413892 34.198359847960496 L16.67853009413892 34.198359847960496 L14.774399204910958 33.019371284112204 L14.774399204910958 33.019371284112204 z"/>
<path fill="#c0c0c0" stroke="#c0c0c0" d="M20.847320618881056 35.81335805458386 L20.847320618881056 35.81335805458386 L18.71311989405972 35.13442033301702 L18.71311989405972 35.13442033301702 z"/>
<path fill="#c0c0c0" stroke="#c0c0c0" d="M20.847320495557245 35.8133573490095 L20.847320495557245 35.8133573490095 L23.048769889966458 36.224880588625986 L23.048769889966458 36.224880588625986 z"/>
<path fill="#c0c0c0" stroke="#c0c0c0" d="M20.84732 35.81336 L23.04877 36.22488 L25.28411 36.36275 L27.51944 36.22488 L29.7209 35.81336 L31.85509 35.13442 L33.88968 34.19836 L35.79381 33.01937 L37.53863 31.61532 L39.09768 30.0075 L40.44733 28.22027 L41.56713 26.28073 L42.44009 24.21828 L43.05298 22.06419 L43.39651 19.85111 L43.46548 17.61259 L43.25884 15.38256 L42.77972 13.19482 L42.03538 11.08255 L41.03711 9.07775 L39.80004 7.21083 L38.34292 5.51007 L36.68785 4.00128 L34.85991 2.7073 L32.8868 1.64777 L30.79845 0.83874 L28.62651 0.29247 L26.4039 0.01725 L24.16431 0.01725 L21.9417 0.29247 L19.76976 0.83874 L17.68141 1.64777 L15.7083 2.7073 L13.88036 4.00128 L12.22529 5.51007 L10.76817 7.21083 L9.5311 9.07775 L8.53283 11.08255 L7.7885 13.19482 L7.30938 15.38256 L7.10273 17.61259 L7.1717 19.85111 L7.51523 22.06419 L8.12813 24.21828 L9.00109 26.28073 L10.12088 28.22027 L11.47053 30.0075 L13.02958 31.61532 L14.7744 33.01937 L16.67853 34.19836 L18.71312 35.13442 z"/>
<path fill="#c0c0c0" stroke="#c0c0c0" d="M20.95898 24.90278 L19.23811 23.41164 L18.00705 21.49607 L17.36553 19.31127 L17.36553 17.03423 L18.00705 14.84943 L19.23811 12.93386 L20.95898 11.44272 L23.03025 10.49681 L25.28411 10.17275 L27.53797 10.49681 L29.60923 11.44272 L31.3301 12.93386 L32.56116 14.84943 L33.20268 17.03423 L33.20268 19.31127 L32.56116 21.49607 L31.3301 23.41164 L29.60923 24.90278 L27.53797 25.84869 L25.28411 26.17275 L23.03025 25.84869 z"/>
<path fill="#c0c0c0" stroke="#c0c0c0" d="M27.537970535377024 25.84869372362974 L27.537970535377024 25.84869372362974 L25.284109983242022 26.1727498834457 L25.284109983242022 26.1727498834457 z"/>
<path fill="#c0c0c0" stroke="#c0c0c0" d="M23.03024929784122 25.84869488362256 L23.03024929784122 25.84869488362256 L25.284109849976215 26.17275104343852 L25.284109849976215 26.17275104343852 z"/>
<path fill="#c0c0c0" stroke="#c0c0c0" d="M31.33009928778031 23.41163917805461 L31.33009928778031 23.41163917805461 L29.609230404965768 24.902780467355434 L29.609230404965768 24.902780467355434 z"/>
<path fill="#c0c0c0" stroke="#c0c0c0" d="M29.60922991731039 24.90277981893504 L29.60922991731039 24.90277981893504 L27.537971005321175 25.848692201346008 L27.537971005321175 25.848692201346008 z"/>
<path fill="#c0c0c0" stroke="#c0c0c0" d="M33.202677338804975 19.311269218602465 L33.202677338804975 19.311269218602465 L32.5611616626954 21.496070488211526 L32.5611616626954 21.496070488211526 z"/>
<path fill="#c0c0c0" stroke="#c0c0c0" d="M32.561161432141496 21.496070920381253 L32.561161432141496 21.496070920381253 L31.330100144739628 23.411640093018487 L31.330100144739628 23.411640093018487 z"/>
<path fill="#c0c0c0" stroke="#c0c0c0" d="M32.561161406960096 14.849429586879149 L32.561161406960096 14.849429586879149 L33.202677083069666 17.03423085648821 L33.202677083069666 17.03423085648821 z"/>
<path fill="#c0c0c0" stroke="#c0c0c0" d="M33.202677354812636 17.03423 L33.202677354812636 17.03423 L33.202677354812636 19.31127 L33.202677354812636 19.31127 z"/>
<path fill="#c0c0c0" stroke="#c0c0c0" d="M31.330099714463287 12.933860183503262 L31.330099714463287 12.933860183503262 L32.56116100186516 14.849429356140496 L32.56116100186516 14.849429356140496 z"/>
<path fill="#c0c0c0" stroke="#c0c0c0" d="M27.53797064783461 10.496808581440273 L27.53797064783461 10.496808581440273 L29.609229559823824 11.442720963851238 L29.609229559823824 11.442720963851238 z"/>
<path fill="#c0c0c0" stroke="#c0c0c0" d="M29.60922993675798 11.44272007298518 L29.60922993675798 11.44272007298518 L31.330098819572523 12.933861362286004 L31.330098819572523 12.933861362286004 z"/>
<path fill="#c0c0c0" stroke="#c0c0c0" d="M25.284109849976215 10.17275104343852 L25.284109849976215 10.17275104343852 L27.537970402111217 10.496807203254482 L27.537970402111217 10.496807203254482 z"/>
<path fill="#c0c0c0" stroke="#c0c0c0" d="M18.007050218212452 14.84943006407297 L18.007050218212452 14.84943006407297 L17.36553454210288 17.034231333682033 L17.36553454210288 17.034231333682033 z"/>
<path fill="#c0c0c0" stroke="#c0c0c0" d="M23.030249431107023 10.496806043261662 L23.030249431107023 10.496806043261662 L25.284109983242022 10.172749883445702 L25.284109983242022 10.172749883445702 z"/>
<path fill="#c0c0c0" stroke="#c0c0c0" d="M20.958980744811576 11.44272163090963 L20.958980744811576 11.44272163090963 L23.03024793110406 10.496805469750448 L23.03024793110406 10.496805469750448 z"/>
<path fill="#c0c0c0" stroke="#c0c0c0" d="M19.238111534845384 12.933860986385017 L19.238111534845384 12.933860986385017 L18.007050247443505 14.849430159022251 L18.007050247443505 14.849430159022251 z"/>
<path fill="#c0c0c0" stroke="#c0c0c0" d="M19.238111937458655 12.933862235946613 L19.238111937458655 12.933862235946613 L20.958980820273197 11.44272094664579 L20.958980820273197 11.44272094664579 z"/>
<path fill="#c0c0c0" stroke="#c0c0c0" d="M18.007049962477147 21.496070011017704 L18.007049962477147 21.496070011017704 L17.365534286367573 19.311268741408643 L17.365534286367573 19.311268741408643 z"/>
<path fill="#c0c0c0" stroke="#c0c0c0" d="M17.365534410476698 19.31127 L17.365534410476698 19.31127 L17.365534410476698 17.03423 L17.365534410476698 17.03423 z"/>
<path fill="#c0c0c0" stroke="#c0c0c0" d="M19.238111104569043 23.41163929013673 L19.238111104569043 23.41163929013673 L18.007049817167168 21.496070117499496 L18.007049817167168 21.496070117499496 z"/>
<path fill="#c0c0c0" stroke="#c0c0c0" d="M20.958980387325006 24.90277915187665 L20.958980387325006 24.90277915187665 L23.030247573617494 25.848695313035833 L23.030247573617494 25.848695313035833 z"/>
<path fill="#c0c0c0" stroke="#c0c0c0" d="M20.958980352065414 24.902779593694827 L20.958980352065414 24.902779593694827 L19.23811146925087 23.411638304394003 L19.23811146925087 23.411638304394003 z"/>
<path fill="#c0c0c0" stroke="#c0c0c0" d="M19.23811 23.41164 L20.95898 24.90278 L23.03025 25.84869 L25.28411 26.17275 L27.53797 25.84869 L29.60923 24.90278 L31.3301 23.41164 L32.56116 21.49607 L33.20268 19.31127 L33.20268 17.03423 L32.56116 14.84943 L31.3301 12.93386 L29.60923 11.44272 L27.53797 10.49681 L25.28411 10.17275 L23.03025 10.49681 L20.95898 11.44272 L19.23811 12.93386 L18.00705 14.84943 L17.36553 17.03423 L17.36553 19.31127 L18.00705 21.49607 z"/>
</svg>